<mxfile host="Electron" agent="Mozilla/5.0 (Windows NT 10.0; Win64; x64) AppleWebKit/537.36 (KHTML, like Gecko) draw.io/24.7.17 Chrome/128.0.6613.36 Electron/32.0.1 Safari/537.36" version="24.7.17">
  <diagram id="C5RBs43oDa-KdzZeNtuy" name="Page-1">
    <mxGraphModel dx="1366" dy="842" grid="0" gridSize="10" guides="1" tooltips="1" connect="1" arrows="1" fold="1" page="1" pageScale="1" pageWidth="827" pageHeight="1169" background="#ffffff" math="0" shadow="0">
      <root>
        <mxCell id="WIyWlLk6GJQsqaUBKTNV-0" />
        <mxCell id="WIyWlLk6GJQsqaUBKTNV-1" parent="WIyWlLk6GJQsqaUBKTNV-0" />
        <mxCell id="TDE-MPFVUsmgOI3h4uzn-0" style="edgeStyle=orthogonalEdgeStyle;rounded=1;orthogonalLoop=1;jettySize=auto;html=1;strokeColor=#E07A5F;fontColor=#393C56;fillColor=#F2CC8F;exitX=0.001;exitY=1.058;exitDx=0;exitDy=0;exitPerimeter=0;" edge="1" parent="WIyWlLk6GJQsqaUBKTNV-1" source="TDE-MPFVUsmgOI3h4uzn-4" target="TDE-MPFVUsmgOI3h4uzn-40">
          <mxGeometry relative="1" as="geometry" />
        </mxCell>
        <mxCell id="TDE-MPFVUsmgOI3h4uzn-1" value="Model::TypingSession : IDisposable" style="swimlane;fontStyle=2;align=center;verticalAlign=top;childLayout=stackLayout;horizontal=1;startSize=26;horizontalStack=0;resizeParent=1;resizeLast=0;collapsible=1;marginBottom=0;rounded=1;shadow=0;strokeWidth=1;labelBackgroundColor=none;fillColor=#F2CC8F;strokeColor=#E07A5F;fontColor=#393C56;" vertex="1" parent="WIyWlLk6GJQsqaUBKTNV-1">
          <mxGeometry x="401" y="64" width="350" height="814" as="geometry">
            <mxRectangle x="220" y="120" width="160" height="26" as="alternateBounds" />
          </mxGeometry>
        </mxCell>
        <mxCell id="TDE-MPFVUsmgOI3h4uzn-2" value="+ EntryId: int { readonly }" style="text;align=left;verticalAlign=top;spacingLeft=4;spacingRight=4;overflow=hidden;rotatable=0;points=[[0,0.5],[1,0.5]];portConstraint=eastwest;rounded=1;shadow=0;html=0;labelBackgroundColor=none;fontColor=#393C56;" vertex="1" parent="TDE-MPFVUsmgOI3h4uzn-1">
          <mxGeometry y="26" width="350" height="26" as="geometry" />
        </mxCell>
        <mxCell id="TDE-MPFVUsmgOI3h4uzn-3" value="+ TextToWrite: string { readonly }" style="text;align=left;verticalAlign=top;spacingLeft=4;spacingRight=4;overflow=hidden;rotatable=0;points=[[0,0.5],[1,0.5]];portConstraint=eastwest;rounded=1;shadow=0;html=0;labelBackgroundColor=none;fontColor=#393C56;" vertex="1" parent="TDE-MPFVUsmgOI3h4uzn-1">
          <mxGeometry y="52" width="350" height="26" as="geometry" />
        </mxCell>
        <mxCell id="TDE-MPFVUsmgOI3h4uzn-4" value="+ Wpm: int { readonly }" style="text;align=left;verticalAlign=top;spacingLeft=4;spacingRight=4;overflow=hidden;rotatable=0;points=[[0,0.5],[1,0.5]];portConstraint=eastwest;rounded=1;shadow=0;html=0;labelBackgroundColor=none;fontColor=#393C56;" vertex="1" parent="TDE-MPFVUsmgOI3h4uzn-1">
          <mxGeometry y="78" width="350" height="26" as="geometry" />
        </mxCell>
        <mxCell id="TDE-MPFVUsmgOI3h4uzn-5" value="+ IsPlaying: bool { readonly }" style="text;align=left;verticalAlign=top;spacingLeft=4;spacingRight=4;overflow=hidden;rotatable=0;points=[[0,0.5],[1,0.5]];portConstraint=eastwest;rounded=1;shadow=0;html=0;labelBackgroundColor=none;fontColor=#393C56;" vertex="1" parent="TDE-MPFVUsmgOI3h4uzn-1">
          <mxGeometry y="104" width="350" height="26" as="geometry" />
        </mxCell>
        <mxCell id="TDE-MPFVUsmgOI3h4uzn-6" value="+ CurrentPosition: int { readonly }" style="text;align=left;verticalAlign=top;spacingLeft=4;spacingRight=4;overflow=hidden;rotatable=0;points=[[0,0.5],[1,0.5]];portConstraint=eastwest;rounded=1;shadow=0;html=0;labelBackgroundColor=none;fontColor=#393C56;" vertex="1" parent="TDE-MPFVUsmgOI3h4uzn-1">
          <mxGeometry y="130" width="350" height="26" as="geometry" />
        </mxCell>
        <mxCell id="TDE-MPFVUsmgOI3h4uzn-7" value="+ WrongCharacters: int { readonly }" style="text;align=left;verticalAlign=top;spacingLeft=4;spacingRight=4;overflow=hidden;rotatable=0;points=[[0,0.5],[1,0.5]];portConstraint=eastwest;rounded=1;shadow=0;html=0;labelBackgroundColor=none;fontColor=#393C56;" vertex="1" parent="TDE-MPFVUsmgOI3h4uzn-1">
          <mxGeometry y="156" width="350" height="26" as="geometry" />
        </mxCell>
        <mxCell id="TDE-MPFVUsmgOI3h4uzn-8" value="+ ElapsedTime: int { readonly }" style="text;align=left;verticalAlign=top;spacingLeft=4;spacingRight=4;overflow=hidden;rotatable=0;points=[[0,0.5],[1,0.5]];portConstraint=eastwest;rounded=1;shadow=0;html=0;labelBackgroundColor=none;fontColor=#393C56;" vertex="1" parent="TDE-MPFVUsmgOI3h4uzn-1">
          <mxGeometry y="182" width="350" height="26" as="geometry" />
        </mxCell>
        <mxCell id="TDE-MPFVUsmgOI3h4uzn-9" value="+ SessionOverview: string { readonly }" style="text;align=left;verticalAlign=top;spacingLeft=4;spacingRight=4;overflow=hidden;rotatable=0;points=[[0,0.5],[1,0.5]];portConstraint=eastwest;rounded=1;shadow=0;html=0;labelBackgroundColor=none;fontColor=#393C56;" vertex="1" parent="TDE-MPFVUsmgOI3h4uzn-1">
          <mxGeometry y="208" width="350" height="26" as="geometry" />
        </mxCell>
        <mxCell id="TDE-MPFVUsmgOI3h4uzn-10" value="+ FinalOverview: string { readonly }" style="text;align=left;verticalAlign=top;spacingLeft=4;spacingRight=4;overflow=hidden;rotatable=0;points=[[0,0.5],[1,0.5]];portConstraint=eastwest;rounded=1;shadow=0;html=0;labelBackgroundColor=none;fontColor=#393C56;" vertex="1" parent="TDE-MPFVUsmgOI3h4uzn-1">
          <mxGeometry y="234" width="350" height="26" as="geometry" />
        </mxCell>
        <mxCell id="TDE-MPFVUsmgOI3h4uzn-11" value="+ StartTime: DateTime { readonly }" style="text;align=left;verticalAlign=top;spacingLeft=4;spacingRight=4;overflow=hidden;rotatable=0;points=[[0,0.5],[1,0.5]];portConstraint=eastwest;rounded=1;shadow=0;html=0;labelBackgroundColor=none;fontColor=#393C56;" vertex="1" parent="TDE-MPFVUsmgOI3h4uzn-1">
          <mxGeometry y="260" width="350" height="26" as="geometry" />
        </mxCell>
        <mxCell id="TDE-MPFVUsmgOI3h4uzn-12" value="- WrittenText: char[]?" style="text;align=left;verticalAlign=top;spacingLeft=4;spacingRight=4;overflow=hidden;rotatable=0;points=[[0,0.5],[1,0.5]];portConstraint=eastwest;rounded=1;shadow=0;html=0;labelBackgroundColor=none;fontColor=#393C56;" vertex="1" parent="TDE-MPFVUsmgOI3h4uzn-1">
          <mxGeometry y="286" width="350" height="26" as="geometry" />
        </mxCell>
        <mxCell id="TDE-MPFVUsmgOI3h4uzn-13" value="- DataHandler: IDataHandler" style="text;align=left;verticalAlign=top;spacingLeft=4;spacingRight=4;overflow=hidden;rotatable=0;points=[[0,0.5],[1,0.5]];portConstraint=eastwest;rounded=1;shadow=0;html=0;labelBackgroundColor=none;fontColor=#393C56;" vertex="1" parent="TDE-MPFVUsmgOI3h4uzn-1">
          <mxGeometry y="312" width="350" height="26" as="geometry" />
        </mxCell>
        <mxCell id="TDE-MPFVUsmgOI3h4uzn-14" value="- TypingTimer: Timer" style="text;align=left;verticalAlign=top;spacingLeft=4;spacingRight=4;overflow=hidden;rotatable=0;points=[[0,0.5],[1,0.5]];portConstraint=eastwest;rounded=1;shadow=0;html=0;labelBackgroundColor=none;fontColor=#393C56;" vertex="1" parent="TDE-MPFVUsmgOI3h4uzn-1">
          <mxGeometry y="338" width="350" height="26" as="geometry" />
        </mxCell>
        <mxCell id="TDE-MPFVUsmgOI3h4uzn-15" value="+ TimerTick: EventHandler?Â  &lt;&lt;event&gt;&gt;" style="text;align=left;verticalAlign=top;spacingLeft=4;spacingRight=4;overflow=hidden;rotatable=0;points=[[0,0.5],[1,0.5]];portConstraint=eastwest;rounded=1;shadow=0;html=0;labelBackgroundColor=none;fontColor=#393C56;" vertex="1" parent="TDE-MPFVUsmgOI3h4uzn-1">
          <mxGeometry y="364" width="350" height="26" as="geometry" />
        </mxCell>
        <mxCell id="TDE-MPFVUsmgOI3h4uzn-16" value="" style="line;html=1;strokeWidth=1;align=left;verticalAlign=middle;spacingTop=-1;spacingLeft=3;spacingRight=3;rotatable=0;labelPosition=right;points=[];portConstraint=eastwest;labelBackgroundColor=none;fillColor=#F2CC8F;strokeColor=#E07A5F;fontColor=#393C56;rounded=1;" vertex="1" parent="TDE-MPFVUsmgOI3h4uzn-1">
          <mxGeometry y="390" width="350" height="8" as="geometry" />
        </mxCell>
        <mxCell id="TDE-MPFVUsmgOI3h4uzn-17" value="+ TypingSession(IDataHandler)" style="text;align=left;verticalAlign=top;spacingLeft=4;spacingRight=4;overflow=hidden;rotatable=0;points=[[0,0.5],[1,0.5]];portConstraint=eastwest;labelBackgroundColor=none;fontColor=#393C56;rounded=1;" vertex="1" parent="TDE-MPFVUsmgOI3h4uzn-1">
          <mxGeometry y="398" width="350" height="26" as="geometry" />
        </mxCell>
        <mxCell id="TDE-MPFVUsmgOI3h4uzn-18" value="+ SetNormalGame(): void" style="text;align=left;verticalAlign=top;spacingLeft=4;spacingRight=4;overflow=hidden;rotatable=0;points=[[0,0.5],[1,0.5]];portConstraint=eastwest;labelBackgroundColor=none;fontColor=#393C56;rounded=1;" vertex="1" parent="TDE-MPFVUsmgOI3h4uzn-1">
          <mxGeometry y="424" width="350" height="26" as="geometry" />
        </mxCell>
        <mxCell id="TDE-MPFVUsmgOI3h4uzn-19" value="+ SetCasualGame(int): void" style="text;align=left;verticalAlign=top;spacingLeft=4;spacingRight=4;overflow=hidden;rotatable=0;points=[[0,0.5],[1,0.5]];portConstraint=eastwest;labelBackgroundColor=none;fontColor=#393C56;rounded=1;" vertex="1" parent="TDE-MPFVUsmgOI3h4uzn-1">
          <mxGeometry y="450" width="350" height="26" as="geometry" />
        </mxCell>
        <mxCell id="TDE-MPFVUsmgOI3h4uzn-20" value="+ SetChosenGame(Entry): void" style="text;align=left;verticalAlign=top;spacingLeft=4;spacingRight=4;overflow=hidden;rotatable=0;points=[[0,0.5],[1,0.5]];portConstraint=eastwest;labelBackgroundColor=none;fontColor=#393C56;rounded=1;" vertex="1" parent="TDE-MPFVUsmgOI3h4uzn-1">
          <mxGeometry y="476" width="350" height="26" as="geometry" />
        </mxCell>
        <mxCell id="TDE-MPFVUsmgOI3h4uzn-21" value="+ StartNewSession(): void" style="text;align=left;verticalAlign=top;spacingLeft=4;spacingRight=4;overflow=hidden;rotatable=0;points=[[0,0.5],[1,0.5]];portConstraint=eastwest;labelBackgroundColor=none;fontColor=#393C56;rounded=1;" vertex="1" parent="TDE-MPFVUsmgOI3h4uzn-1">
          <mxGeometry y="502" width="350" height="26" as="geometry" />
        </mxCell>
        <mxCell id="TDE-MPFVUsmgOI3h4uzn-22" value="+ CalculateWpm(): void" style="text;align=left;verticalAlign=top;spacingLeft=4;spacingRight=4;overflow=hidden;rotatable=0;points=[[0,0.5],[1,0.5]];portConstraint=eastwest;labelBackgroundColor=none;fontColor=#393C56;rounded=1;" vertex="1" parent="TDE-MPFVUsmgOI3h4uzn-1">
          <mxGeometry y="528" width="350" height="26" as="geometry" />
        </mxCell>
        <mxCell id="TDE-MPFVUsmgOI3h4uzn-23" value="+ HandleKeyPress(char): bool" style="text;align=left;verticalAlign=top;spacingLeft=4;spacingRight=4;overflow=hidden;rotatable=0;points=[[0,0.5],[1,0.5]];portConstraint=eastwest;labelBackgroundColor=none;fontColor=#393C56;rounded=1;" vertex="1" parent="TDE-MPFVUsmgOI3h4uzn-1">
          <mxGeometry y="554" width="350" height="26" as="geometry" />
        </mxCell>
        <mxCell id="TDE-MPFVUsmgOI3h4uzn-24" value="+ HandleBackspace(): bool" style="text;align=left;verticalAlign=top;spacingLeft=4;spacingRight=4;overflow=hidden;rotatable=0;points=[[0,0.5],[1,0.5]];portConstraint=eastwest;labelBackgroundColor=none;fontColor=#393C56;rounded=1;" vertex="1" parent="TDE-MPFVUsmgOI3h4uzn-1">
          <mxGeometry y="580" width="350" height="26" as="geometry" />
        </mxCell>
        <mxCell id="TDE-MPFVUsmgOI3h4uzn-25" value="+ HandleEnter(): bool" style="text;align=left;verticalAlign=top;spacingLeft=4;spacingRight=4;overflow=hidden;rotatable=0;points=[[0,0.5],[1,0.5]];portConstraint=eastwest;labelBackgroundColor=none;fontColor=#393C56;rounded=1;" vertex="1" parent="TDE-MPFVUsmgOI3h4uzn-1">
          <mxGeometry y="606" width="350" height="26" as="geometry" />
        </mxCell>
        <mxCell id="TDE-MPFVUsmgOI3h4uzn-26" value="+ TerminateSession(): void" style="text;align=left;verticalAlign=top;spacingLeft=4;spacingRight=4;overflow=hidden;rotatable=0;points=[[0,0.5],[1,0.5]];portConstraint=eastwest;labelBackgroundColor=none;fontColor=#393C56;rounded=1;" vertex="1" parent="TDE-MPFVUsmgOI3h4uzn-1">
          <mxGeometry y="632" width="350" height="26" as="geometry" />
        </mxCell>
        <mxCell id="TDE-MPFVUsmgOI3h4uzn-27" value="+ EndSession(): void" style="text;align=left;verticalAlign=top;spacingLeft=4;spacingRight=4;overflow=hidden;rotatable=0;points=[[0,0.5],[1,0.5]];portConstraint=eastwest;labelBackgroundColor=none;fontColor=#393C56;rounded=1;" vertex="1" parent="TDE-MPFVUsmgOI3h4uzn-1">
          <mxGeometry y="658" width="350" height="26" as="geometry" />
        </mxCell>
        <mxCell id="TDE-MPFVUsmgOI3h4uzn-28" value="+ Dispose(): void" style="text;align=left;verticalAlign=top;spacingLeft=4;spacingRight=4;overflow=hidden;rotatable=0;points=[[0,0.5],[1,0.5]];portConstraint=eastwest;labelBackgroundColor=none;fontColor=#393C56;rounded=1;" vertex="1" parent="TDE-MPFVUsmgOI3h4uzn-1">
          <mxGeometry y="684" width="350" height="26" as="geometry" />
        </mxCell>
        <mxCell id="TDE-MPFVUsmgOI3h4uzn-29" value="- SetGameData(Entry): void" style="text;align=left;verticalAlign=top;spacingLeft=4;spacingRight=4;overflow=hidden;rotatable=0;points=[[0,0.5],[1,0.5]];portConstraint=eastwest;labelBackgroundColor=none;fontColor=#393C56;rounded=1;" vertex="1" parent="TDE-MPFVUsmgOI3h4uzn-1">
          <mxGeometry y="710" width="350" height="26" as="geometry" />
        </mxCell>
        <mxCell id="TDE-MPFVUsmgOI3h4uzn-30" value="- TypingTimer_Elapsed(object?, ElapsedEventArgs): void" style="text;align=left;verticalAlign=top;spacingLeft=4;spacingRight=4;overflow=hidden;rotatable=0;points=[[0,0.5],[1,0.5]];portConstraint=eastwest;labelBackgroundColor=none;fontColor=#393C56;rounded=1;" vertex="1" parent="TDE-MPFVUsmgOI3h4uzn-1">
          <mxGeometry y="736" width="350" height="26" as="geometry" />
        </mxCell>
        <mxCell id="TDE-MPFVUsmgOI3h4uzn-31" value="- IsLastCharacterCorrect(): bool" style="text;align=left;verticalAlign=top;spacingLeft=4;spacingRight=4;overflow=hidden;rotatable=0;points=[[0,0.5],[1,0.5]];portConstraint=eastwest;labelBackgroundColor=none;fontColor=#393C56;rounded=1;" vertex="1" parent="TDE-MPFVUsmgOI3h4uzn-1">
          <mxGeometry y="762" width="350" height="26" as="geometry" />
        </mxCell>
        <mxCell id="TDE-MPFVUsmgOI3h4uzn-32" value="- SetLastCharacter(char): void" style="text;align=left;verticalAlign=top;spacingLeft=4;spacingRight=4;overflow=hidden;rotatable=0;points=[[0,0.5],[1,0.5]];portConstraint=eastwest;labelBackgroundColor=none;fontColor=#393C56;rounded=1;" vertex="1" parent="TDE-MPFVUsmgOI3h4uzn-1">
          <mxGeometry y="788" width="350" height="26" as="geometry" />
        </mxCell>
        <mxCell id="TDE-MPFVUsmgOI3h4uzn-33" value="Model::Entry" style="swimlane;fontStyle=2;align=center;verticalAlign=top;childLayout=stackLayout;horizontal=1;startSize=26;horizontalStack=0;resizeParent=1;resizeLast=0;collapsible=1;marginBottom=0;rounded=1;shadow=0;strokeWidth=1;labelBackgroundColor=none;fillColor=#F2CC8F;strokeColor=#E07A5F;fontColor=#393C56;" vertex="1" parent="WIyWlLk6GJQsqaUBKTNV-1">
          <mxGeometry x="118" y="384" width="220" height="164" as="geometry">
            <mxRectangle x="220" y="120" width="160" height="26" as="alternateBounds" />
          </mxGeometry>
        </mxCell>
        <mxCell id="TDE-MPFVUsmgOI3h4uzn-34" value="+ Id: int { readonly }" style="text;align=left;verticalAlign=top;spacingLeft=4;spacingRight=4;overflow=hidden;rotatable=0;points=[[0,0.5],[1,0.5]];portConstraint=eastwest;labelBackgroundColor=none;fontColor=#393C56;rounded=1;" vertex="1" parent="TDE-MPFVUsmgOI3h4uzn-33">
          <mxGeometry y="26" width="220" height="26" as="geometry" />
        </mxCell>
        <mxCell id="TDE-MPFVUsmgOI3h4uzn-35" value="+ Title: string { readonly }" style="text;align=left;verticalAlign=top;spacingLeft=4;spacingRight=4;overflow=hidden;rotatable=0;points=[[0,0.5],[1,0.5]];portConstraint=eastwest;labelBackgroundColor=none;fontColor=#393C56;rounded=1;" vertex="1" parent="TDE-MPFVUsmgOI3h4uzn-33">
          <mxGeometry y="52" width="220" height="26" as="geometry" />
        </mxCell>
        <mxCell id="TDE-MPFVUsmgOI3h4uzn-36" value="+ Author: string { readonly }" style="text;align=left;verticalAlign=top;spacingLeft=4;spacingRight=4;overflow=hidden;rotatable=0;points=[[0,0.5],[1,0.5]];portConstraint=eastwest;labelBackgroundColor=none;fontColor=#393C56;rounded=1;" vertex="1" parent="TDE-MPFVUsmgOI3h4uzn-33">
          <mxGeometry y="78" width="220" height="26" as="geometry" />
        </mxCell>
        <mxCell id="TDE-MPFVUsmgOI3h4uzn-37" value="+ Text: string { readonly }" style="text;align=left;verticalAlign=top;spacingLeft=4;spacingRight=4;overflow=hidden;rotatable=0;points=[[0,0.5],[1,0.5]];portConstraint=eastwest;labelBackgroundColor=none;fontColor=#393C56;rounded=1;" vertex="1" parent="TDE-MPFVUsmgOI3h4uzn-33">
          <mxGeometry y="104" width="220" height="26" as="geometry" />
        </mxCell>
        <mxCell id="TDE-MPFVUsmgOI3h4uzn-38" value="" style="line;html=1;strokeWidth=1;align=left;verticalAlign=middle;spacingTop=-1;spacingLeft=3;spacingRight=3;rotatable=0;labelPosition=right;points=[];portConstraint=eastwest;labelBackgroundColor=none;fillColor=#F2CC8F;strokeColor=#E07A5F;fontColor=#393C56;rounded=1;" vertex="1" parent="TDE-MPFVUsmgOI3h4uzn-33">
          <mxGeometry y="130" width="220" height="8" as="geometry" />
        </mxCell>
        <mxCell id="TDE-MPFVUsmgOI3h4uzn-39" value="+ Entry(int, string, string, string)" style="text;align=left;verticalAlign=top;spacingLeft=4;spacingRight=4;overflow=hidden;rotatable=0;points=[[0,0.5],[1,0.5]];portConstraint=eastwest;labelBackgroundColor=none;fontColor=#393C56;rounded=1;" vertex="1" parent="TDE-MPFVUsmgOI3h4uzn-33">
          <mxGeometry y="138" width="220" height="26" as="geometry" />
        </mxCell>
        <mxCell id="TDE-MPFVUsmgOI3h4uzn-40" value="Model::Score" style="swimlane;fontStyle=2;align=center;verticalAlign=top;childLayout=stackLayout;horizontal=1;startSize=26;horizontalStack=0;resizeParent=1;resizeLast=0;collapsible=1;marginBottom=0;rounded=1;shadow=0;strokeWidth=1;labelBackgroundColor=none;fillColor=#F2CC8F;strokeColor=#E07A5F;fontColor=#393C56;" vertex="1" parent="WIyWlLk6GJQsqaUBKTNV-1">
          <mxGeometry x="118" y="74" width="220" height="190" as="geometry">
            <mxRectangle x="220" y="120" width="160" height="26" as="alternateBounds" />
          </mxGeometry>
        </mxCell>
        <mxCell id="TDE-MPFVUsmgOI3h4uzn-41" value="+ Wpm: int { readonly }" style="text;align=left;verticalAlign=top;spacingLeft=4;spacingRight=4;overflow=hidden;rotatable=0;points=[[0,0.5],[1,0.5]];portConstraint=eastwest;labelBackgroundColor=none;fontColor=#393C56;rounded=1;" vertex="1" parent="TDE-MPFVUsmgOI3h4uzn-40">
          <mxGeometry y="26" width="220" height="26" as="geometry" />
        </mxCell>
        <mxCell id="TDE-MPFVUsmgOI3h4uzn-42" value="+ EntryId: int { readonly }" style="text;align=left;verticalAlign=top;spacingLeft=4;spacingRight=4;overflow=hidden;rotatable=0;points=[[0,0.5],[1,0.5]];portConstraint=eastwest;labelBackgroundColor=none;fontColor=#393C56;rounded=1;" vertex="1" parent="TDE-MPFVUsmgOI3h4uzn-40">
          <mxGeometry y="52" width="220" height="26" as="geometry" />
        </mxCell>
        <mxCell id="TDE-MPFVUsmgOI3h4uzn-43" value="+ TimeTakenSeconds: int { readonly }" style="text;align=left;verticalAlign=top;spacingLeft=4;spacingRight=4;overflow=hidden;rotatable=0;points=[[0,0.5],[1,0.5]];portConstraint=eastwest;labelBackgroundColor=none;fontColor=#393C56;rounded=1;" vertex="1" parent="TDE-MPFVUsmgOI3h4uzn-40">
          <mxGeometry y="78" width="220" height="26" as="geometry" />
        </mxCell>
        <mxCell id="TDE-MPFVUsmgOI3h4uzn-44" value="+ WrongCharacters: int { readonly }" style="text;align=left;verticalAlign=top;spacingLeft=4;spacingRight=4;overflow=hidden;rotatable=0;points=[[0,0.5],[1,0.5]];portConstraint=eastwest;labelBackgroundColor=none;fontColor=#393C56;rounded=1;" vertex="1" parent="TDE-MPFVUsmgOI3h4uzn-40">
          <mxGeometry y="104" width="220" height="26" as="geometry" />
        </mxCell>
        <mxCell id="TDE-MPFVUsmgOI3h4uzn-45" value="+ Date: DateTime { readonly }" style="text;align=left;verticalAlign=top;spacingLeft=4;spacingRight=4;overflow=hidden;rotatable=0;points=[[0,0.5],[1,0.5]];portConstraint=eastwest;labelBackgroundColor=none;fontColor=#393C56;rounded=1;" vertex="1" parent="TDE-MPFVUsmgOI3h4uzn-40">
          <mxGeometry y="130" width="220" height="26" as="geometry" />
        </mxCell>
        <mxCell id="TDE-MPFVUsmgOI3h4uzn-46" value="" style="line;html=1;strokeWidth=1;align=left;verticalAlign=middle;spacingTop=-1;spacingLeft=3;spacingRight=3;rotatable=0;labelPosition=right;points=[];portConstraint=eastwest;labelBackgroundColor=none;fillColor=#F2CC8F;strokeColor=#E07A5F;fontColor=#393C56;rounded=1;" vertex="1" parent="TDE-MPFVUsmgOI3h4uzn-40">
          <mxGeometry y="156" width="220" height="8" as="geometry" />
        </mxCell>
        <mxCell id="TDE-MPFVUsmgOI3h4uzn-47" value="+ Score(int, int, int, int)" style="text;align=left;verticalAlign=top;spacingLeft=4;spacingRight=4;overflow=hidden;rotatable=0;points=[[0,0.5],[1,0.5]];portConstraint=eastwest;labelBackgroundColor=none;fontColor=#393C56;rounded=1;" vertex="1" parent="TDE-MPFVUsmgOI3h4uzn-40">
          <mxGeometry y="164" width="220" height="26" as="geometry" />
        </mxCell>
        <mxCell id="TDE-MPFVUsmgOI3h4uzn-48" value="Model::EntryDataNotSetException : Exception" style="swimlane;fontStyle=2;align=center;verticalAlign=top;childLayout=stackLayout;horizontal=1;startSize=26;horizontalStack=0;resizeParent=1;resizeLast=0;collapsible=1;marginBottom=0;rounded=1;shadow=0;strokeWidth=1;labelBackgroundColor=none;fillColor=#F2CC8F;strokeColor=#E07A5F;fontColor=#393C56;" vertex="1" parent="WIyWlLk6GJQsqaUBKTNV-1">
          <mxGeometry x="118" y="767" width="270" height="104" as="geometry">
            <mxRectangle x="220" y="120" width="160" height="26" as="alternateBounds" />
          </mxGeometry>
        </mxCell>
        <mxCell id="TDE-MPFVUsmgOI3h4uzn-49" value="+ EntryDataNotSetException()" style="text;align=left;verticalAlign=top;spacingLeft=4;spacingRight=4;overflow=hidden;rotatable=0;points=[[0,0.5],[1,0.5]];portConstraint=eastwest;labelBackgroundColor=none;fontColor=#393C56;rounded=1;" vertex="1" parent="TDE-MPFVUsmgOI3h4uzn-48">
          <mxGeometry y="26" width="270" height="26" as="geometry" />
        </mxCell>
        <mxCell id="TDE-MPFVUsmgOI3h4uzn-50" value="+ EntryDataNotSetException(string)" style="text;align=left;verticalAlign=top;spacingLeft=4;spacingRight=4;overflow=hidden;rotatable=0;points=[[0,0.5],[1,0.5]];portConstraint=eastwest;labelBackgroundColor=none;fontColor=#393C56;rounded=1;" vertex="1" parent="TDE-MPFVUsmgOI3h4uzn-48">
          <mxGeometry y="52" width="270" height="26" as="geometry" />
        </mxCell>
        <mxCell id="TDE-MPFVUsmgOI3h4uzn-51" value="+ EntryDataNotSetException(string, Exception)" style="text;align=left;verticalAlign=top;spacingLeft=4;spacingRight=4;overflow=hidden;rotatable=0;points=[[0,0.5],[1,0.5]];portConstraint=eastwest;labelBackgroundColor=none;fontColor=#393C56;rounded=1;" vertex="1" parent="TDE-MPFVUsmgOI3h4uzn-48">
          <mxGeometry y="78" width="270" height="26" as="geometry" />
        </mxCell>
        <mxCell id="TDE-MPFVUsmgOI3h4uzn-52" style="edgeStyle=orthogonalEdgeStyle;rounded=1;orthogonalLoop=1;jettySize=auto;html=1;strokeColor=#E07A5F;fontColor=#393C56;fillColor=#F2CC8F;entryX=1;entryY=0.5;entryDx=0;entryDy=0;" edge="1" parent="WIyWlLk6GJQsqaUBKTNV-1" source="TDE-MPFVUsmgOI3h4uzn-1" target="TDE-MPFVUsmgOI3h4uzn-36">
          <mxGeometry relative="1" as="geometry">
            <Array as="points">
              <mxPoint x="386" y="475" />
              <mxPoint x="386" y="475" />
            </Array>
          </mxGeometry>
        </mxCell>
        <mxCell id="TDE-MPFVUsmgOI3h4uzn-53" style="edgeStyle=orthogonalEdgeStyle;rounded=1;orthogonalLoop=1;jettySize=auto;html=1;strokeColor=#E07A5F;fontColor=#393C56;fillColor=#F2CC8F;" edge="1" parent="WIyWlLk6GJQsqaUBKTNV-1" source="TDE-MPFVUsmgOI3h4uzn-27" target="TDE-MPFVUsmgOI3h4uzn-48">
          <mxGeometry relative="1" as="geometry" />
        </mxCell>
      </root>
    </mxGraphModel>
  </diagram>
</mxfile>
